<svg xmlns="http://www.w3.org/2000/svg" width="21" height="15" viewBox="0 0 21 15"><path d="M5.25 1.07143C5.25 0.479715 5.72012 0 6.3 0H19.95C20.5299 0 21 0.479715 21 1.07143C21 1.66314 20.5299 2.14286 19.95 2.14286H6.3C5.72012 2.14286 5.25 1.6631 5.25 1.07143ZM19.95 6.42857H1.05C0.470121 6.42857 0 6.90833 0 7.5C0 8.09171 0.470121 8.57143 1.05 8.57143H19.95C20.5299 8.57143 21 8.09171 21 7.5C21 6.90833 20.5299 6.42857 19.95 6.42857ZM19.95 12.8571H10.5C9.92016 12.8571 9.45 13.3369 9.45 13.9286C9.45 14.5202 9.92016 15 10.5 15H19.95C20.5299 15 21 14.5202 21 13.9286C21 13.3369 20.5299 12.8571 19.95 12.8571Z"></path></svg>